<svg width="250" height="37" viewBox="0 0 250 37" fill="none" xmlns="http://www.w3.org/2000/svg">
<path d="M117.804 5.09995e-07V34.6464H106.137V0L117.804 5.09995e-07Z" fill="#BCFF02"/>
<path fill-rule="evenodd" clip-rule="evenodd" d="M216.346 34.6137V5.09995e-07H233.01C236.241 5.09995e-07 239.027 0.527448 241.367 1.58234C243.741 2.63724 245.57 4.15365 246.856 6.13158C248.141 8.07654 248.784 10.3841 248.784 13.0543C248.784 15.7245 248.141 18.0321 246.856 19.9771C245.736 21.6428 244.203 22.9708 242.257 23.961L249.526 34.6137H237.065L231.195 25.9109H228.016V34.6137H216.346ZM232.269 17.1091H228.016V8.99957H232.269C233.884 8.99957 235.071 9.36219 235.829 10.0874C236.62 10.8127 237.016 11.8016 237.016 13.0543C237.016 14.307 236.62 15.296 235.829 16.0212C235.071 16.7465 233.884 17.1091 232.269 17.1091Z" fill="#BCFF02"/>
<path d="M87.03 36.2284C84.129 36.2284 81.327 35.8987 78.6238 35.2394C75.9206 34.5801 73.6954 33.723 71.9483 32.6681L75.7063 24.163C77.3546 25.119 79.1842 25.8937 81.1951 26.4871C83.2389 27.0475 85.2169 27.3277 87.1289 27.3277C88.2497 27.3277 89.1233 27.2618 89.7496 27.1299C90.4089 26.9651 90.8869 26.7508 91.1836 26.4871C91.4803 26.1904 91.6287 25.8443 91.6287 25.4487C91.6287 24.8223 91.2825 24.3279 90.5902 23.9652C89.898 23.6026 88.9749 23.3059 87.8211 23.0752C86.7003 22.8115 85.4641 22.5477 84.1125 22.284C82.7609 21.9873 81.3929 21.6082 80.0083 21.1467C78.6567 20.6852 77.4041 20.0753 76.2503 19.3171C75.1294 18.5589 74.2229 17.5699 73.5306 16.3502C72.8383 15.0975 72.4922 13.5482 72.4922 11.7021C72.4922 9.55934 73.0856 7.61437 74.2723 5.8672C75.4921 4.08707 77.2887 2.66956 79.6622 1.61466C82.0687 0.559767 85.052 0.0323199 88.6123 0.0323199C90.9529 0.0323199 93.2604 0.279561 95.5351 0.774042C97.8097 1.26852 99.8535 2.02673 101.667 3.04866L98.1558 11.5043C96.4416 10.6472 94.7769 10.0044 93.1615 9.57582C91.5792 9.14727 90.0298 8.93299 88.5134 8.93299C87.3926 8.93299 86.5025 9.03189 85.8432 9.22968C85.1839 9.42748 84.7059 9.6912 84.4092 10.0209C84.1455 10.3505 84.0136 10.7131 84.0136 11.1087C84.0136 11.7021 84.3598 12.1801 85.052 12.5427C85.7443 12.8724 86.6509 13.1526 87.7717 13.3833C88.9255 13.6141 90.1782 13.8613 91.5298 14.1251C92.9143 14.3888 94.2824 14.7514 95.634 15.2129C96.9855 15.6744 98.2217 16.2843 99.3426 17.0425C100.496 17.8007 101.419 18.7897 102.112 20.0094C102.804 21.2291 103.15 22.7455 103.15 24.5586C103.15 26.6684 102.54 28.6134 101.321 30.3935C100.134 32.1407 98.3536 33.5582 95.9801 34.6461C93.6066 35.7009 90.6232 36.2284 87.03 36.2284Z" fill="#BCFF02"/>
<path fill-rule="evenodd" clip-rule="evenodd" d="M0 34.6464L68.9697 34.6464V25.8232L51.6727 25.8232C53.02 23.3829 53.6937 20.5384 53.6937 17.2897C53.6937 14.0752 53.0219 11.2638 51.6782 8.85553L68.9697 8.85553V0.0323199H0V34.6464ZM34.5181 8.85553L11.6673 8.85553V25.8232L34.5182 25.8232C34.6494 25.8102 34.7791 25.7948 34.9073 25.7772C38.8009 25.5422 41.886 22.3101 41.886 18.3574V16.3213C41.886 12.3686 38.8009 9.1365 34.9073 8.90153C34.7791 8.88393 34.6494 8.8686 34.5181 8.85553Z" fill="#BCFF02"/>
<path d="M213.341 8.85553V0.0323199L181.919 0.0323298V15.7477L168.766 0.0323199H159.173L159.173 34.6137H170.546V18.8742L183.7 34.6137H184.124V34.6464H213.341V25.8232L193.293 25.8232V8.85553L213.341 8.85553Z" fill="#BCFF02"/>
<path d="M65.964 21.5571V13.154H57.5609V21.5571H65.964Z" fill="#BCFF02"/>
<path d="M210.335 13.154V21.5571H201.932V13.154H210.335Z" fill="#BCFF02"/>
<path d="M140.112 36.2284C137.31 36.2284 134.722 35.7998 132.349 34.9427C130.008 34.0527 127.964 32.8 126.217 31.1847C124.503 29.5694 123.168 27.6574 122.212 25.4487C121.256 23.24 120.778 20.8006 120.778 18.1304C120.778 15.4602 121.256 13.0207 122.212 10.812C123.168 8.60334 124.519 6.69134 126.266 5.07603C128.014 3.46073 130.074 2.22452 132.448 1.36742C134.854 0.477354 137.491 0.0323199 140.359 0.0323199C143.788 0.0323199 146.837 0.609215 149.507 1.763C152.21 2.9168 154.435 4.56507 156.183 6.70782L148.716 13.2844C147.628 12.0317 146.441 11.0922 145.156 10.4659C143.903 9.80658 142.502 9.47692 140.953 9.47692C139.667 9.47692 138.497 9.67472 137.442 10.0703C136.42 10.4659 135.546 11.0428 134.821 11.801C134.096 12.5592 133.535 13.4657 133.14 14.5206C132.744 15.5755 132.546 16.7788 132.546 18.1304C132.546 19.416 132.744 20.6028 133.14 21.6906C133.535 22.7455 134.096 23.6521 134.821 24.4103C135.546 25.1685 136.403 25.7619 137.392 26.1904C138.414 26.586 139.552 26.7838 140.804 26.7838C142.123 26.7838 143.409 26.5695 144.661 26.141C144.792 26.0927 144.924 26.041 145.057 25.9859V17.1908H155.194V31.8275C153.084 33.245 150.677 34.3329 147.974 35.0911C145.271 35.8493 142.65 36.2284 140.112 36.2284Z" fill="#BCFF02"/>
</svg>
